<svg width="84" height="85" viewBox="0 0 84 85" fill="none" xmlns="http://www.w3.org/2000/svg">
<circle cx="42" cy="42.894" r="42" fill="#28468C" fill-opacity="0.1"/>
<circle cx="42" cy="24.894" r="7" stroke="#28468C" stroke-width="2"/>
<path d="M42 48.894H28C28 43.5607 30.8 32.894 42 32.894C53.2 32.894 56 43.5607 56 48.894H42Z" stroke="#28468C" stroke-width="2"/>
<path d="M28.9896 65.894H20.2481C20.2481 65.786 20.2481 65.6805 20.2481 65.5777C20.2481 64.4177 20.2558 63.2551 20.2403 62.0951C20.2403 61.9396 20.1624 61.7498 20.056 61.639C18.4338 59.9755 16.8013 58.3225 15.1765 56.6617C15.0857 56.5694 15.0104 56.4138 15.0104 56.2873C15 51.5657 15 46.844 15 42.1197C15 42.0617 15.0052 42.0037 15.0104 41.9194C16.1135 41.8377 17.1802 41.9299 18.1353 42.5495C19.4616 43.4063 20.1935 44.6348 20.2351 46.2403C20.2662 47.4003 20.2429 48.5629 20.2429 49.7229C20.2429 49.831 20.2429 49.9364 20.2429 49.9812C20.749 49.9707 21.2395 49.918 21.7197 49.9601C22.2647 50.0076 22.7293 50.2871 23.1187 50.6799C25.0393 52.6255 26.9574 54.5737 28.8702 56.5246C28.9429 56.5984 28.9948 56.7276 28.9948 56.8304C29 59.8121 29 62.7937 29 65.7728C29 65.8018 28.9948 65.8308 28.987 65.8914L28.9896 65.894ZM27.2558 60.5792C27.2558 59.5669 27.2636 58.6046 27.2481 57.6424C27.2481 57.4974 27.1728 57.3155 27.0716 57.2127C26.0463 56.1529 25.0082 55.1062 23.9752 54.057C23.3107 53.3821 22.6463 52.7072 21.9818 52.0323C21.7119 51.7581 21.3978 51.6131 21.0111 51.708C20.2403 51.9005 19.9911 52.8179 20.5595 53.4005C21.4575 54.3259 22.366 55.2381 23.2692 56.1555C23.3419 56.2293 23.4093 56.3058 23.4431 56.3453C23.0226 56.7724 22.6229 57.181 22.2102 57.6002C21.3018 56.6748 20.3804 55.7205 19.4383 54.7872C18.7894 54.144 18.4857 53.3821 18.4909 52.4646C18.5039 50.4479 18.4909 48.4311 18.4961 46.4169C18.4961 45.626 18.2418 44.9459 17.6681 44.416C17.4138 44.1787 17.0971 44.0126 16.7597 43.7806C16.7519 43.9441 16.7468 44.0021 16.7468 44.0601C16.7468 47.8854 16.7468 51.7133 16.7545 55.5386C16.7545 55.6651 16.8272 55.8233 16.9181 55.9156C18.3767 57.4104 19.8406 58.8999 21.3148 60.3789C21.4238 60.487 21.6107 60.5687 21.7638 60.5687C23.4872 60.5819 25.2106 60.5766 26.934 60.5766C27.03 60.5766 27.1235 60.5766 27.2584 60.5766L27.2558 60.5792ZM22.026 62.3719V64.1093H27.2429V62.3719H22.026Z" fill="#28468C"/>
<path d="M55.0104 65.894H63.7519C63.7519 65.786 63.7519 65.6805 63.7519 65.5777C63.7519 64.4177 63.7442 63.2551 63.7597 62.0951C63.7597 61.9396 63.8376 61.7498 63.944 61.639C65.5662 59.9755 67.1987 58.3225 68.8235 56.6617C68.9143 56.5694 68.9896 56.4138 68.9896 56.2873C69 51.5657 69 46.844 69 42.1197C69 42.0617 68.9948 42.0037 68.9896 41.9194C67.8865 41.8377 66.8198 41.9299 65.8647 42.5495C64.5384 43.4063 63.8065 44.6348 63.7649 46.2403C63.7338 47.4003 63.7571 48.5629 63.7571 49.7229C63.7571 49.831 63.7571 49.9364 63.7571 49.9812C63.251 49.9707 62.7605 49.918 62.2803 49.9601C61.7353 50.0076 61.2707 50.2871 60.8813 50.6799C58.9607 52.6255 57.0426 54.5737 55.1298 56.5246C55.0571 56.5984 55.0052 56.7276 55.0052 56.8304C55 59.8121 55 62.7937 55 65.7728C55 65.8018 55.0052 65.8308 55.013 65.8914L55.0104 65.894ZM56.7442 60.5792C56.7442 59.5669 56.7364 58.6046 56.7519 57.6424C56.7519 57.4974 56.8272 57.3155 56.9284 57.2127C57.9537 56.1529 58.9918 55.1062 60.0248 54.057C60.6893 53.3821 61.3537 52.7072 62.0182 52.0323C62.2881 51.7581 62.6022 51.6131 62.9889 51.708C63.7597 51.9005 64.0089 52.8179 63.4405 53.4005C62.5425 54.3259 61.634 55.2381 60.7308 56.1555C60.6581 56.2293 60.5907 56.3058 60.5569 56.3453C60.9774 56.7724 61.3771 57.181 61.7898 57.6002C62.6982 56.6748 63.6196 55.7205 64.5617 54.7872C65.2106 54.144 65.5143 53.3821 65.5091 52.4646C65.4961 50.4479 65.5091 48.4311 65.5039 46.4169C65.5039 45.626 65.7582 44.9459 66.3319 44.416C66.5862 44.1787 66.9029 44.0126 67.2403 43.7806C67.2481 43.9441 67.2532 44.0021 67.2532 44.0601C67.2532 47.8854 67.2532 51.7133 67.2455 55.5386C67.2455 55.6651 67.1728 55.8233 67.0819 55.9156C65.6233 57.4104 64.1594 58.8999 62.6852 60.3789C62.5762 60.487 62.3893 60.5687 62.2362 60.5687C60.5128 60.5819 58.7894 60.5766 57.066 60.5766C56.97 60.5766 56.8765 60.5766 56.7416 60.5766L56.7442 60.5792ZM61.974 62.3719V64.1093H56.7571V62.3719H61.974Z" fill="#28468C"/>
<path d="M54.8571 32.894V23.8868H53L57 18.894L61 23.8868L59.1429 23.8868V32.894H54.8571Z" stroke="#28468C" stroke-width="2"/>
<path d="M24.8571 32.894V29.8076H23L27 24.894L31 29.8076H29.1429V32.894H24.8571Z" stroke="#28468C" stroke-width="2"/>
</svg>
