<svg width="84" height="85" viewBox="0 0 84 85" fill="none" xmlns="http://www.w3.org/2000/svg">
<circle cx="42" cy="42.894" r="42" fill="#28468C" fill-opacity="0.1"/>
<path d="M15 31.5507V27.8254C15 26.2872 16.3028 25.5021 16.9542 25.3018C18.8764 25.3018 21.2505 25.3018 23.7939 25.3018M15 31.5507V45.731C15 47.894 15 47.894 15 47.894C15 47.894 37.7176 47.894 47 47.894C47 47.019 47 46.7885 47 45.731C47 44.8895 47 37.1456 47 31.07M15 31.5507C15.1221 32.0714 15.5374 33.185 16.2214 33.4734C16.9053 33.7619 24.486 35.1959 28.1908 35.8769M28.1908 35.8769V33.1129C28.2316 32.8325 28.4107 32.2717 28.8015 32.2717C29.1924 32.2717 31.9771 32.2717 33.3206 32.2717C33.5242 32.3518 33.9313 32.6322 33.9313 33.1129C33.9313 33.5936 33.9313 35.1558 33.9313 35.8769M28.1908 35.8769V38.1601C28.4351 38.9613 29.3634 40.5636 31.1221 40.5636C32.8809 40.5636 33.7277 39.0414 33.9313 38.1601V35.8769M33.9313 35.8769L45.4122 33.7138C45.8601 33.4734 46.7802 32.8726 46.8779 32.3919C46.9756 31.9112 47 31.3104 47 31.07M47 31.07C47 29.5095 47 28.0591 47 26.864C46.8372 26.3433 46.1206 25.3018 44.5573 25.3018C44.0209 25.3018 41.6098 25.3018 38.3282 25.3018M26.6031 25.1816V22.5378H35.5191V25.3018M35.5191 25.3018C36.5052 25.3018 37.448 25.3018 38.3282 25.3018M35.5191 25.3018C31.8753 25.3018 27.6409 25.3018 23.7939 25.3018M38.3282 25.3018V21.3361C38.2468 20.8554 37.8397 19.894 36.8626 19.894C35.8855 19.894 28.6387 19.894 25.1374 19.894C24.6896 19.9742 23.7939 20.3747 23.7939 21.3361C23.7939 22.2975 23.7939 24.3805 23.7939 25.3018" stroke="#28468C" stroke-width="2"/>
<path d="M50 48.894C50.0027 48.7974 50 48.7007 50 48.604C50 44.8318 50 41.0597 50 37.2862C50 37.1909 50 37.0956 50 36.9751H50.2812C52.1725 36.9751 54.0651 36.9737 55.9564 36.9779C56.12 36.9779 56.2362 36.9344 56.3511 36.8069C58.2735 34.6532 60.2013 32.5051 62.125 30.3528C62.2007 30.2687 62.2562 30.1566 62.2954 30.0473C62.7766 28.726 63.2539 27.4032 63.7311 26.0804C63.7703 25.9711 63.8041 25.8927 63.9514 25.8941C65.0343 25.9025 66.1172 25.8983 67.2 25.8997C67.2352 25.8997 67.269 25.9039 67.3271 25.9081V26.1589C67.3271 27.9623 67.3298 29.7671 67.323 31.5705C67.323 31.705 67.2865 31.8521 67.2257 31.9712C66.8458 32.7181 66.4538 33.4594 66.0671 34.2034C66.0306 34.2735 65.9995 34.3464 65.9468 34.4556H71.9911V34.7261C71.9911 35.7518 71.9722 36.7775 71.9978 37.8018C72.0168 38.5585 71.91 39.2829 71.7248 40.013C70.9826 42.9472 70.2634 45.8884 69.5374 48.8268C69.532 48.8478 69.5334 48.8716 69.5307 48.894H59.1766C58.4128 48.3588 57.649 47.8235 56.8365 47.256V48.894H50.1504H50ZM63.3174 47.546C63.3255 47.4858 63.3323 47.4564 63.3336 47.4269C63.4323 46.0243 63.5324 44.6217 63.6297 43.219C63.819 40.5104 64.0055 37.8032 64.1975 35.0946C64.2056 34.9881 64.2394 34.8746 64.2881 34.7793C64.8356 33.7186 65.3898 32.6607 65.936 31.5999C65.9874 31.5004 66.0185 31.3757 66.0198 31.2622C66.0252 29.9983 66.0239 28.733 66.0239 27.4691C66.0239 27.399 66.0239 27.3275 66.0239 27.2491C65.6264 27.2491 65.2655 27.2589 64.9045 27.2449C64.7463 27.2393 64.6814 27.2967 64.6287 27.4466C64.2326 28.5606 63.8284 29.6718 63.4215 30.783C63.3823 30.8909 63.3228 31.0002 63.2471 31.0857C61.1625 33.4187 59.0738 35.7476 56.9906 38.0821C56.9081 38.1745 56.8473 38.3273 56.8473 38.452C56.8392 40.7795 56.8419 43.1055 56.8378 45.433C56.8378 45.5829 56.8784 45.674 57.0028 45.7595C57.8166 46.313 58.6223 46.8805 59.4375 47.4326C59.5375 47.5012 59.6754 47.5404 59.7957 47.5418C60.8935 47.5503 61.9899 47.546 63.0876 47.546H63.316H63.3174ZM55.5279 47.5362V38.3441H51.3181V47.5362H55.5279ZM65.2871 38.1493H70.6743V35.8247H65.452C65.3966 36.5995 65.3425 37.366 65.2871 38.1493ZM65.0546 41.5263H70.0011C70.1647 40.8635 70.3283 40.1993 70.4932 39.5309H65.1925C65.1465 40.1993 65.1019 40.8523 65.0559 41.5263H65.0546ZM69.6604 42.8953H64.9572C64.9113 43.5623 64.8667 44.2167 64.8207 44.8837H69.1697C69.3319 44.2251 69.4942 43.5693 69.6604 42.8953ZM64.7261 46.2555C64.695 46.6913 64.6652 47.1061 64.6368 47.5082C64.6598 47.5264 64.6666 47.5348 64.672 47.5348C65.9184 47.539 67.1649 47.5432 68.4099 47.5418C68.4519 47.5418 68.5194 47.4928 68.5303 47.4536C68.6344 47.0598 68.729 46.6633 68.8304 46.2555H64.7274H64.7261Z" fill="#28468C" stroke="#28468C" stroke-width="0.4"/>
<path d="M52 42.894V40.894H54V42.894H52Z" fill="#28468C"/>
<path d="M57.0502 59.894L23.0893 59.894M57.0502 59.894L57.0502 56.394L57.0502 52.894M57.0502 59.894L65 56.394L57.0502 52.894M57.0502 52.894L23.0893 52.894M23.0893 59.894L15 59.894L15 52.894L23.0893 52.894M23.0893 59.894L23.0893 52.894" stroke="#28468C" stroke-width="2"/>
</svg>
