<svg width="84" height="85" viewBox="0 0 84 85" fill="none" xmlns="http://www.w3.org/2000/svg">
<circle cx="42" cy="42.894" r="42" fill="#28468C" fill-opacity="0.1"/>
<path d="M52.8011 64.894H22V18.894H58V60.3038M52.8011 64.894V60.3038H58M52.8011 64.894L58 60.3038" stroke="#28468C" stroke-width="2"/>
<path d="M58.3077 22.894H61V68.394H26V64.894" stroke="#28468C" stroke-width="2" stroke-linecap="square"/>
<path d="M52.0423 45.4519V46.0677V54.894H49.2535M52.0423 45.4519H55V41.894H25L25 45.4519H27.9577M52.0423 45.4519H27.9577M27.9577 45.4519V46.0677V54.894H30.662M30.662 54.894V48.5993H34.9718V54.894M30.662 54.894H34.9718M34.9718 54.894H37.7606M37.7606 54.894V48.5993H42.0704V54.894M37.7606 54.894H42.0704M42.0704 54.894H44.9437M44.9437 54.894V48.5993H49.2535V54.894M44.9437 54.894H49.2535" stroke="#28468C" stroke-width="2"/>
<path d="M37.4128 38.894H40.0885M42.7641 38.894H40.0885M40.0885 38.894V26.894M40.0885 26.894H34.0074M40.0885 26.894H46.1253M34.0074 26.894L31 33.2905M34.0074 26.894L37.1032 33.2905M46.1253 26.894L43.0737 33.2905M46.1253 26.894L49 33.2905M43.0737 33.2905C45.0491 33.2905 49 33.2905 49 33.2905M43.0737 33.2905V34.1864C43.0737 35.8229 44.4004 37.1495 46.0369 37.1495V37.1495C47.6734 37.1495 49 35.8229 49 34.1864V33.2905M31 33.2905H37.1032M31 33.2905V34.0979C31 35.7833 32.3662 37.1495 34.0516 37.1495V37.1495C35.7369 37.1495 37.1032 35.7833 37.1032 34.0979V33.2905" stroke="#28468C" stroke-width="2"/>
</svg>
