<svg width="21" height="22" viewBox="0 0 21 22" fill="none" xmlns="http://www.w3.org/2000/svg">
<path fill-rule="evenodd" clip-rule="evenodd" d="M9.30447 7.54986C9.84847 6.81674 10.0435 6.0441 9.42829 5.36209C8.04759 3.43012 7.11903 2.23539 6.53659 1.66003C5.42931 0.566213 3.6078 0.714169 2.64881 1.6591C2.13372 2.16663 1.95935 2.34092 1.43047 2.87811C-1.51547 5.82562 0.281116 12.0566 5.05709 16.8372C9.83197 21.6168 16.0623 23.4144 19.0144 20.4606C19.5025 19.9901 19.9157 19.5767 20.2416 19.2322C21.1814 18.2389 21.324 16.4978 20.2354 15.3666C19.6772 14.7867 18.538 13.903 16.5247 12.4628C15.9081 11.9115 15.177 12.031 14.5067 12.4707C14.1843 12.6823 13.9497 12.8962 13.5066 13.3397L12.702 14.1447C12.5961 14.2508 11.1572 13.5301 9.76037 12.132C8.36283 10.7331 7.64272 9.29408 7.74819 9.18862L8.5533 8.38306C8.69387 8.24235 8.76107 8.17423 8.84726 8.08365C9.02682 7.89494 9.17549 7.72368 9.30447 7.54986ZM14.1862 15.6289L14.9909 14.8237C15.2347 14.5797 15.3928 14.4296 15.5213 14.3261C17.285 15.5926 18.3064 16.389 18.7236 16.8225C18.974 17.0828 18.9351 17.5577 18.7174 17.7878C18.416 18.1063 18.0245 18.498 17.5441 18.9614C15.6351 20.8712 10.6058 19.4202 6.54154 15.3519C2.47595 11.2823 1.02563 6.25224 2.92016 4.35667C3.4469 3.82169 3.61379 3.65488 4.12152 3.1546C4.31189 2.96702 4.83045 2.9249 5.06203 3.15366C5.51045 3.59663 6.34226 4.6617 7.56589 6.36621C7.50255 6.44485 7.42343 6.53373 7.32715 6.63492C7.25648 6.70919 7.19761 6.76887 7.0689 6.8977L6.26458 7.70246C4.89627 9.07066 6.06157 11.3993 8.27597 13.6158C10.4889 15.8309 12.8183 16.9975 14.1862 15.6289ZM12.2423 0.967302C16.7817 1.51754 20.3812 5.11699 20.9314 9.65648L18.8572 10.0022C18.4567 6.34569 15.553 3.44201 11.8966 3.04151L12.2423 0.967302ZM11.5502 5.11806C14.3238 5.36614 16.5328 7.57513 16.7808 10.3487L14.7 10.6955C14.6117 8.80461 13.0943 7.28723 11.2034 7.19893L11.5502 5.11806Z" fill="white"/>
</svg>
