<svg width="20" height="25" viewBox="0 0 20 25" fill="none" xmlns="http://www.w3.org/2000/svg">
<path fill-rule="evenodd" clip-rule="evenodd" d="M9.51542 24.5003L10.2108 23.8931C16.0585 18.787 19.0308 14.3285 19.0308 10.4095C19.0308 4.85951 14.6992 0.894043 9.51542 0.894043C4.33169 0.894043 0 4.85951 0 10.4095C0 14.3285 2.97231 18.787 8.82003 23.8931L9.51542 24.5003ZM9.51542 21.6836C4.55325 17.2115 2.11454 13.4219 2.11454 10.4095C2.11454 6.07107 5.45986 3.00858 9.51542 3.00858C13.571 3.00858 16.9163 6.07107 16.9163 10.4095C16.9163 13.4219 14.4776 17.2115 9.51542 21.6836ZM9.51568 5.12312C12.4353 5.12312 14.802 7.4899 14.802 10.4095C14.802 13.329 12.4353 15.6958 9.51568 15.6958C6.59611 15.6958 4.22934 13.329 4.22934 10.4095C4.22934 7.4899 6.59611 5.12312 9.51568 5.12312ZM6.34362 10.4093C6.34362 8.6576 7.76368 7.23753 9.51542 7.23753C11.2672 7.23753 12.6872 8.6576 12.6872 10.4093C12.6872 12.1611 11.2672 13.5811 9.51542 13.5811C7.76368 13.5811 6.34362 12.1611 6.34362 10.4093Z" fill="white"/>
</svg>
