<svg width="87" height="36" viewBox="0 0 87 36" fill="none" xmlns="http://www.w3.org/2000/svg">
<rect x="0.7" y="1.59404" width="33.7069" height="33.7069" stroke="white" stroke-width="1.4"/>
<path d="M20.9422 26.6327H14.2753C12.9725 26.6313 11.7236 26.1404 10.8024 25.2676C9.88129 24.3948 9.36319 23.2115 9.36182 21.9772L9.36182 15.6608C9.36329 14.4266 9.88143 13.2433 10.8026 12.3706C11.7237 11.4979 12.9726 11.007 14.2753 11.0056H20.9422C22.2449 11.0069 23.4939 11.4978 24.4151 12.3705C25.3363 13.2432 25.8545 14.4265 25.856 15.6608V21.9772C25.8546 23.2115 25.3364 24.3949 24.4152 25.2677C23.494 26.1405 22.245 26.6314 20.9422 26.6327ZM14.2753 12.5774C13.4124 12.5784 12.5852 12.9035 11.9751 13.4816C11.365 14.0596 11.0218 14.8433 11.0208 15.6608V21.9772C11.0218 22.7947 11.365 23.5784 11.9752 24.1563C12.5853 24.7343 13.4125 25.0594 14.2753 25.0603H20.9422C21.8049 25.0594 22.6321 24.7343 23.2421 24.1563C23.8522 23.5783 24.1953 22.7946 24.1963 21.9772V15.6608C24.1953 14.8434 23.8522 14.0596 23.2422 13.4816C22.6321 12.9035 21.8049 12.5784 20.9422 12.5774H14.2753ZM17.6078 22.8603C16.7642 22.8601 15.9396 22.6228 15.2383 22.1785C14.537 21.7343 13.9905 21.103 13.6678 20.3645C13.3452 19.6259 13.2609 18.8134 13.4257 18.0295C13.5905 17.2456 13.9969 16.5256 14.5935 15.9605C15.1902 15.3955 15.9503 15.0107 16.7778 14.8549C17.6052 14.6991 18.4628 14.7793 19.2422 15.0852C20.0216 15.3912 20.6877 15.9093 21.1563 16.5739C21.6249 17.2385 21.875 18.0199 21.8749 18.8192C21.8738 19.8908 21.424 20.9182 20.6242 21.6759C19.8244 22.4336 18.7399 22.8597 17.6089 22.8606L17.6078 22.8603ZM17.6078 16.3482C17.0923 16.3482 16.5883 16.493 16.1596 16.7644C15.731 17.0358 15.3969 17.4215 15.1996 17.8728C15.0023 18.324 14.9507 18.8206 15.0512 19.2997C15.1518 19.7787 15.4001 20.2188 15.7646 20.5642C16.1292 20.9096 16.5937 21.1448 17.0993 21.2401C17.605 21.3354 18.1291 21.2865 18.6054 21.0995C19.0817 20.9126 19.4888 20.5961 19.7752 20.1899C20.0617 19.7838 20.2145 19.3063 20.2145 18.8179C20.2134 18.1635 19.9386 17.5362 19.4501 17.0735C18.9617 16.6108 18.2996 16.3505 17.6089 16.3495L17.6078 16.3482ZM21.8819 15.7749C21.6797 15.7749 21.482 15.718 21.3139 15.6115C21.1459 15.505 21.0149 15.3537 20.9376 15.1767C20.8603 14.9997 20.8401 14.8049 20.8796 14.617C20.9191 14.4292 21.0165 14.2566 21.1596 14.1212C21.3026 13.9858 21.4848 13.8936 21.6831 13.8563C21.8814 13.819 22.087 13.8382 22.2738 13.9116C22.4605 13.985 22.6202 14.1092 22.7324 14.2685C22.8447 14.4278 22.9046 14.6151 22.9045 14.8067C22.9046 15.0635 22.797 15.3099 22.6054 15.4917C22.4139 15.6735 22.154 15.7758 21.8829 15.7762L21.8819 15.7749Z" fill="white"/>
<rect x="52.1901" y="1.59404" width="33.7069" height="33.7069" stroke="white" stroke-width="1.4"/>
</svg>
