<svg width="66" height="66" viewBox="0 0 66 66" fill="none" xmlns="http://www.w3.org/2000/svg">
<circle cx="33" cy="33" r="33" fill="#D3D9F2"/>
<circle cx="33" cy="33" r="25.0189" fill="#28468C" stroke="#28468C" stroke-width="1.96226"/>
<path d="M43.3104 23.6896C43.3104 30.2643 43.3104 43.7724 43.3104 45.2069C43.3104 46.6414 42.115 47 41.5173 47C36.4368 47 25.9173 47 24.4828 47C23.0483 47 22.6897 45.8046 22.6897 45.2069C22.6897 36.8391 22.6897 19.7448 22.6897 18.3103C22.6897 16.8758 23.8851 16.5172 24.4828 16.5172H37.0345M43.3104 23.6896L37.0345 16.5172M43.3104 23.6896C42.7127 23.6896 41.069 23.6896 39.2759 23.6896C37.4828 23.6896 37.0345 22.4942 37.0345 21.8965V16.5172" stroke="white" stroke-width="1.7931"/>
<rect x="20" y="27.2759" width="26" height="12.5517" rx="2.68966" fill="white"/>
<path d="M26.0717 29.4679C26.5936 29.4679 27.0351 29.5281 27.3964 29.6485C27.7644 29.7623 28.0588 29.9563 28.2795 30.2306C28.507 30.4982 28.6709 30.8628 28.7713 31.3245C28.8717 31.7794 28.9218 32.3448 28.9218 33.0205C28.9218 33.6962 28.8717 34.2649 28.7713 34.7266C28.6709 35.1815 28.507 35.5461 28.2795 35.8204C28.0588 36.0881 27.7644 36.2821 27.3964 36.4025C27.0351 36.5162 26.5936 36.5731 26.0717 36.5731C25.5699 36.5731 25.1049 36.5631 24.6768 36.543C24.2486 36.5296 23.8438 36.5095 23.4624 36.4828L23.9843 35.5194C24.2519 35.5327 24.5597 35.5461 24.9076 35.5595C25.2555 35.5662 25.6435 35.5695 26.0717 35.5695C26.4598 35.5695 26.7642 35.496 26.985 35.3488C27.2124 35.1949 27.373 34.934 27.4667 34.566C27.5603 34.1913 27.6072 33.6762 27.6072 33.0205C27.6072 32.3648 27.5603 31.853 27.4667 31.485C27.373 31.1104 27.2124 30.8461 26.985 30.6922C26.7642 30.5383 26.4598 30.4614 26.0717 30.4614C25.6569 30.4614 25.2856 30.4647 24.9578 30.4714C24.6366 30.4781 24.3222 30.4815 24.0144 30.4815L23.4624 29.5582C23.8438 29.5314 24.2452 29.5114 24.6667 29.498C25.0949 29.4779 25.5632 29.4679 26.0717 29.4679ZM24.7169 29.5582V36.4828H23.4624V29.5582H24.7169ZM32.8639 29.4277C33.3991 29.4277 33.8507 29.4879 34.2187 29.6084C34.5867 29.7221 34.881 29.9161 35.1018 30.1904C35.3226 30.4647 35.4832 30.8327 35.5835 31.2944C35.6906 31.756 35.7441 32.3314 35.7441 33.0205C35.7441 33.7029 35.6906 34.2783 35.5835 34.7466C35.4832 35.2083 35.3226 35.5762 35.1018 35.8505C34.881 36.1249 34.5867 36.3222 34.2187 36.4426C33.8507 36.5564 33.3991 36.6133 32.8639 36.6133C32.342 36.6133 31.8971 36.5564 31.5291 36.4426C31.1612 36.3222 30.8634 36.1249 30.636 35.8505C30.4085 35.5762 30.2446 35.2083 30.1442 34.7466C30.0439 34.2783 29.9937 33.7029 29.9937 33.0205C29.9937 32.3314 30.0439 31.756 30.1442 31.2944C30.2446 30.8327 30.4085 30.4647 30.636 30.1904C30.8634 29.9161 31.1612 29.7221 31.5291 29.6084C31.8971 29.4879 32.342 29.4277 32.8639 29.4277ZM32.8639 30.4514C32.4691 30.4514 32.158 30.5317 31.9306 30.6922C31.7098 30.8461 31.5526 31.1104 31.4589 31.485C31.3652 31.853 31.3184 32.3648 31.3184 33.0205C31.3184 33.6762 31.3652 34.1913 31.4589 34.566C31.5526 34.934 31.7098 35.1982 31.9306 35.3588C32.158 35.5127 32.4691 35.5896 32.8639 35.5896C33.2653 35.5896 33.5764 35.5127 33.7972 35.3588C34.0247 35.1982 34.1852 34.934 34.2789 34.566C34.3726 34.1913 34.4194 33.6762 34.4194 33.0205C34.4194 32.3648 34.3726 31.853 34.2789 31.485C34.1852 31.1104 34.0247 30.8461 33.7972 30.6922C33.5764 30.5317 33.2653 30.4514 32.8639 30.4514ZM39.6451 29.4378C39.9595 29.4378 40.2271 29.4478 40.4479 29.4679C40.6687 29.4813 40.8728 29.5047 41.0601 29.5381C41.2474 29.5649 41.4414 29.605 41.6422 29.6586L41.5318 30.5919C41.3244 30.5785 41.1303 30.5685 40.9497 30.5618C40.7691 30.5484 40.575 30.5383 40.3676 30.5317C40.1669 30.525 39.9261 30.5216 39.6451 30.5216C39.257 30.5216 38.9526 30.5986 38.7318 30.7524C38.511 30.9063 38.3538 31.1639 38.2602 31.5252C38.1732 31.8865 38.1297 32.3849 38.1297 33.0205C38.1297 33.6561 38.1732 34.1545 38.2602 34.5158C38.3538 34.8771 38.511 35.1347 38.7318 35.2885C38.9526 35.4424 39.257 35.5194 39.6451 35.5194C40.0933 35.5194 40.468 35.5127 40.7691 35.4993C41.0768 35.4792 41.3779 35.4525 41.6723 35.419L41.7827 36.3423C41.4816 36.436 41.1705 36.5029 40.8493 36.543C40.5282 36.5831 40.1268 36.6032 39.6451 36.6032C38.9493 36.6032 38.394 36.4895 37.9792 36.262C37.5643 36.0278 37.2633 35.6498 37.0759 35.128C36.8953 34.6061 36.805 33.9036 36.805 33.0205C36.805 32.1374 36.8953 31.4349 37.0759 30.913C37.2633 30.3912 37.5643 30.0165 37.9792 29.789C38.394 29.5549 38.9493 29.4378 39.6451 29.4378Z" fill="#28468C"/>
</svg>
