<svg width="22" height="22" viewBox="0 0 22 22" fill="none" xmlns="http://www.w3.org/2000/svg">
<path d="M7.04354 21.7731H6.69956C5.69449 21.7796 4.70984 21.4894 3.86906 20.9387C3.02829 20.3879 2.3688 19.6012 1.97329 18.6772C0.98556 16.2775 0.487354 13.7047 0.507937 11.1097C0.489442 8.51429 0.989994 5.94136 1.98017 3.54217C2.37523 2.61925 3.03365 1.83332 3.87308 1.28267C4.7125 0.732028 5.69566 0.441127 6.69956 0.446358H7.04354C7.68214 0.446358 8.29459 0.700042 8.74615 1.1516C9.19771 1.60316 9.45139 2.21561 9.45139 2.85421V6.294C9.45139 6.9326 9.19771 7.54505 8.74615 7.99661C8.29459 8.44817 7.68214 8.70186 7.04354 8.70186H2.72316C2.51959 10.3006 2.51959 11.9188 2.72316 13.5176H7.04354C7.68214 13.5176 8.29459 13.7712 8.74615 14.2228C9.19771 14.6744 9.45139 15.2868 9.45139 15.9254V19.3652C9.45139 20.0038 9.19771 20.6163 8.74615 21.0678C8.29459 21.5194 7.68214 21.7731 7.04354 21.7731ZM3.1153 15.5814C3.31095 16.3646 3.56624 17.1316 3.87893 17.8758C4.11725 18.4245 4.51179 18.8909 5.01336 19.2169C5.51493 19.5429 6.10136 19.7141 6.69956 19.7092H7.04354C7.13477 19.7092 7.22226 19.6729 7.28677 19.6084C7.35128 19.5439 7.38752 19.4564 7.38752 19.3652V15.9254C7.38752 15.8342 7.35128 15.7467 7.28677 15.6822C7.22226 15.6177 7.13477 15.5814 7.04354 15.5814H3.1153ZM3.1153 6.63798H7.04354C7.13477 6.63798 7.22226 6.60174 7.28677 6.53723C7.35128 6.47272 7.38752 6.38523 7.38752 6.294V2.85421C7.38752 2.76298 7.35128 2.67549 7.28677 2.61098C7.22226 2.54647 7.13477 2.51023 7.04354 2.51023H6.69956C6.1001 2.50347 5.51198 2.67385 5.00898 3.00001C4.50597 3.32617 4.11046 3.79359 3.87205 4.34364C3.5617 5.08802 3.30871 5.85503 3.1153 6.63798Z" fill="#28468C"/>
<path d="M14.0919 15.4884L12.6334 14.0299L13.3627 13.3007C13.6502 13.0132 13.8784 12.6719 14.034 12.2962C14.1896 11.9205 14.2698 11.5179 14.2698 11.1113C14.2698 10.7046 14.1896 10.302 14.034 9.92631C13.8784 9.55065 13.6502 9.20932 13.3627 8.92184L12.6334 8.1926L14.0919 6.73413L14.8211 7.46337C15.7884 8.43095 16.3318 9.7431 16.3318 11.1113C16.3318 12.4794 15.7884 13.7916 14.8211 14.7592L14.0919 15.4884Z" fill="#28468C"/>
<path d="M17.9819 19.365L16.5234 17.9203L17.2527 17.191C18.0514 16.3925 18.6851 15.4444 19.1174 14.4009C19.5497 13.3574 19.7722 12.239 19.7722 11.1095C19.7722 9.98001 19.5497 8.86158 19.1174 7.8181C18.6851 6.77462 18.0514 5.82652 17.2527 5.02795L16.5234 4.29872L17.9819 2.854L18.7111 3.58324C20.7108 5.583 21.8343 8.29522 21.8343 11.1233C21.8343 13.9513 20.7108 16.6635 18.7111 18.6633L17.9819 19.365Z" fill="#28468C"/>
</svg>
