<svg width="66" height="66" viewBox="0 0 66 66" fill="none" xmlns="http://www.w3.org/2000/svg">
<circle cx="33" cy="33" r="33" fill="#D3D9F2"/>
<circle cx="33" cy="33" r="25.0189" fill="#28468C" stroke="#28468C" stroke-width="1.96226"/>
<path d="M43.3104 23.6896C43.3104 30.2643 43.3104 43.7724 43.3104 45.2069C43.3104 46.6414 42.115 47 41.5173 47C36.4368 47 25.9173 47 24.4828 47C23.0483 47 22.6897 45.8046 22.6897 45.2069C22.6897 36.8391 22.6897 19.7448 22.6897 18.3103C22.6897 16.8758 23.8851 16.5172 24.4828 16.5172H37.0345M43.3104 23.6896L37.0345 16.5172M43.3104 23.6896C42.7127 23.6896 41.069 23.6896 39.2759 23.6896C37.4828 23.6896 37.0345 22.4942 37.0345 21.8965V16.5172" stroke="white" stroke-width="1.7931"/>
<rect x="20" y="27.2759" width="26" height="12.5517" rx="2.68966" fill="white"/>
<path d="M27.3118 29.4679C27.9206 29.4679 28.399 29.5348 28.7469 29.6686C29.0948 29.7957 29.3423 30.0198 29.4895 30.341C29.6434 30.6554 29.7203 31.1037 29.7203 31.6858C29.7203 32.2678 29.6467 32.7194 29.4995 33.0406C29.359 33.3617 29.1215 33.5858 28.787 33.713C28.4592 33.8401 28.0209 33.9036 27.4723 33.9036C27.1713 33.9036 26.8802 33.8936 26.5992 33.8735C26.3249 33.8535 26.0673 33.8267 25.8265 33.7932C25.5923 33.7598 25.3916 33.7263 25.2243 33.6929C25.0571 33.6527 24.94 33.6193 24.8731 33.5925L24.9032 32.9201C25.2846 32.9201 25.676 32.9201 26.0774 32.9201C26.4855 32.9201 26.8903 32.9201 27.2917 32.9201C27.5861 32.9134 27.8169 32.8766 27.9841 32.8097C28.1581 32.7428 28.2785 32.6224 28.3454 32.4485C28.419 32.2678 28.4558 32.0136 28.4558 31.6858C28.4558 31.3579 28.419 31.107 28.3454 30.9331C28.2785 30.7524 28.1581 30.6287 27.9841 30.5618C27.8169 30.4882 27.5861 30.4514 27.2917 30.4514C26.7029 30.4514 26.1978 30.4547 25.7763 30.4614C25.3548 30.4681 25.0671 30.4781 24.9132 30.4915L24.7727 29.5582C25.0404 29.5314 25.2913 29.5114 25.5254 29.498C25.7663 29.4846 26.0239 29.4779 26.2982 29.4779C26.5792 29.4712 26.917 29.4679 27.3118 29.4679ZM26.0272 29.5582V36.4828H24.7727V29.5582H26.0272ZM33.4681 29.4679C33.9899 29.4679 34.4315 29.5281 34.7928 29.6485C35.1608 29.7623 35.4551 29.9563 35.6759 30.2306C35.9034 30.4982 36.0673 30.8628 36.1677 31.3245C36.268 31.7794 36.3182 32.3448 36.3182 33.0205C36.3182 33.6962 36.268 34.2649 36.1677 34.7266C36.0673 35.1815 35.9034 35.5461 35.6759 35.8204C35.4551 36.0881 35.1608 36.2821 34.7928 36.4025C34.4315 36.5162 33.9899 36.5731 33.4681 36.5731C32.9663 36.5731 32.5013 36.5631 32.0731 36.543C31.6449 36.5296 31.2402 36.5095 30.8588 36.4828L31.3807 35.5194C31.6483 35.5327 31.956 35.5461 32.3039 35.5595C32.6518 35.5662 33.0399 35.5695 33.4681 35.5695C33.8561 35.5695 34.1605 35.496 34.3813 35.3488C34.6088 35.1949 34.7694 34.934 34.863 34.566C34.9567 34.1913 35.0035 33.6762 35.0035 33.0205C35.0035 32.3648 34.9567 31.853 34.863 31.485C34.7694 31.1104 34.6088 30.8461 34.3813 30.6922C34.1605 30.5383 33.8561 30.4614 33.4681 30.4614C33.0533 30.4614 32.682 30.4647 32.3541 30.4714C32.033 30.4781 31.7185 30.4815 31.4108 30.4815L30.8588 29.5582C31.2402 29.5314 31.6416 29.5114 32.0631 29.498C32.4913 29.4779 32.9596 29.4679 33.4681 29.4679ZM32.1133 29.5582V36.4828H30.8588V29.5582H32.1133ZM39.0359 29.5381C39.3771 29.5381 39.7217 29.5415 40.0696 29.5482C40.4242 29.5482 40.7721 29.5549 41.1133 29.5682C41.4612 29.5749 41.7823 29.595 42.0767 29.6284L42.0165 30.5517H39.4674C39.2667 30.5517 39.1162 30.5986 39.0158 30.6922C38.9155 30.7859 38.8653 30.9331 38.8653 31.1338V36.4828H37.6108V30.8829C37.6108 30.4614 37.7413 30.1336 38.0022 29.8994C38.2632 29.6586 38.6077 29.5381 39.0359 29.5381ZM37.7814 32.5087H41.6351V33.432H37.7814V32.5087Z" fill="#28468C"/>
</svg>
