<svg width="50" height="50" viewBox="0 0 50 50" fill="none" xmlns="http://www.w3.org/2000/svg">
<circle cx="25.1597" cy="25.1383" r="24.4991" fill="#38A911"/>
<path d="M19.6806 34.3393C21.2869 35.3012 23.1593 35.85 25.1621 35.85C31.0696 35.85 35.8715 31.045 35.8715 25.1381C35.8715 19.2313 31.0696 14.4263 25.1621 14.4263H25.1573C19.2498 14.4263 14.4478 19.23 14.4478 25.1381C14.4478 27.2928 15.0871 29.3049 16.1895 30.9868L15.1383 34.1204L14.5104 35.9921L16.3909 35.391L19.6806 34.3393Z" fill="#38A911" stroke="white" stroke-width="2"/>
<path d="M30.8139 29.1408C30.5796 29.8024 29.6497 30.3512 28.908 30.5114C28.4005 30.6194 27.7377 30.7056 25.5064 29.7806C22.6523 28.5982 20.8143 25.698 20.6711 25.5098C20.5339 25.3216 19.5178 23.9741 19.5178 22.5804C19.5178 21.1868 20.2255 20.5082 20.5108 20.2168C20.7451 19.9777 21.1324 19.8684 21.5039 19.8684C21.6241 19.8684 21.7321 19.8745 21.8292 19.8793C22.1145 19.8915 22.2578 19.9085 22.4459 20.3589C22.6802 20.9234 23.2508 22.317 23.3188 22.4603C23.388 22.6035 23.4572 22.7977 23.36 22.9859C23.269 23.1802 23.1889 23.2663 23.0456 23.4314C22.9024 23.5965 22.7664 23.7228 22.6232 23.9C22.4921 24.0542 22.3439 24.2193 22.509 24.5046C22.6741 24.7838 23.2447 25.7149 24.0848 26.4628C25.1689 27.4279 26.0478 27.7362 26.3622 27.8673C26.5965 27.9645 26.8757 27.9414 27.0469 27.7593C27.2642 27.525 27.5325 27.1365 27.8057 26.7541C27.9999 26.4798 28.2451 26.4458 28.5025 26.5429C28.7647 26.6339 30.1523 27.3198 30.4376 27.4619C30.7229 27.6051 30.911 27.6731 30.9802 27.7933C31.0482 27.9135 31.0482 28.478 30.8139 29.1408Z" fill="white"/>
</svg>
